<svg width="406" height="406" viewBox="0 0 406 406" fill="none" xmlns="http://www.w3.org/2000/svg">
<g clip-path="url(#clip0_45_262)">
<path d="M145.257 172.379C171.671 183.48 205.272 163.678 220.17 128.229C235.067 92.7831 225.703 54.9132 199.289 43.8125C172.882 32.7146 139.275 52.5238 124.378 87.9707C109.48 123.419 118.85 161.281 145.257 172.379ZM261.048 294.617C260.628 292.866 260.217 291.208 260.169 289.911C259.094 262.485 241.094 223.119 193.814 202.458L191.988 201.678C145.155 181.996 105.259 195.346 83.5284 214.411C82.7813 215.062 81.4485 215.753 80.0374 216.484C78.373 217.335 76.7077 218.222 75.1526 219.293C58.8648 230.475 46.5935 245.615 40.611 261.924C34.2495 279.235 35.6271 295.865 44.4575 308.733C48.0269 313.928 52.6375 317.728 58.1727 320.054C69.5862 324.851 82.7377 322.814 97.9764 320.458C107.67 318.948 117.68 317.395 128.053 317.443C129.181 317.532 133.447 318.739 140.081 321.527C147.97 324.843 153.341 327.926 154.376 328.852C161.399 336.283 166.874 344.459 172.172 352.357C180.291 364.477 187.958 375.917 199.462 380.751C204.398 382.826 209.731 383.534 215.323 382.866C246.176 379.184 267.235 342.356 262.273 300.779C262.024 298.693 261.545 296.641 261.048 294.617ZM247.106 215.183C273.508 226.279 307.115 206.479 322.013 171.03C336.909 135.584 327.541 97.7124 301.139 86.6167C274.722 75.5145 241.117 95.3248 226.22 130.772C211.322 166.22 220.689 204.081 247.106 215.183ZM339.639 215.234C318.469 206.337 292.674 221.329 280.895 249.357C269.121 277.372 276.471 306.297 297.631 315.19C318.789 324.082 344.606 309.096 356.38 281.081C368.159 253.053 360.808 224.13 339.639 215.234ZM101.172 173.825C112.951 145.798 105.6 116.875 84.4393 107.981C63.2778 99.088 37.4697 114.075 25.6907 142.103C13.9166 170.118 21.2695 199.044 42.4309 207.938C63.5924 216.831 89.3979 201.841 101.172 173.825Z" fill="#F4A201"/>
</g>
<defs>
<clipPath id="clip0_45_262">
<rect width="406" height="406" fill="white"/>
</clipPath>
</defs>
</svg>
